<svg width="520" height="885" viewBox="0 0 520 885" fill="none" xmlns="http://www.w3.org/2000/svg">
<path d="M232.221 0.18436C250.71 -0.12564 269.717 0.0583592 288.246 0.0183592C288.845 23.9944 288.408 49.7383 288.413 73.8263L288.483 213.35C310.831 213.684 334.042 213.368 356.455 213.353C355.693 208.645 355.004 203.69 354.434 198.953C350.92 169.774 345.812 140.389 342.93 111.169C360.154 110.513 382.155 110.807 399.417 111.111C404.235 141.596 408.164 174.299 412.395 205.04L441.874 421.202C446.239 452.685 450.055 488.358 455.428 519.132L396.162 519.256C384.048 434.786 374.66 348.856 362.832 264.367L288.254 264.482C289.373 290.844 288.413 324.795 288.417 351.77L288.371 519.222L232.165 519.262L232.126 264.336C208.009 264.797 182.584 264.41 158.363 264.426C145.784 348.437 135.224 434.768 123.49 519.182L64.8125 519.249C67.2745 506.653 69.2635 488.072 71.0245 474.999L82.2575 391.984L120.199 111.103C137.769 110.301 160.933 110.912 178.703 111.189C176.132 130.988 173.45 150.773 170.655 170.543C168.812 184.158 167.094 200.072 164.66 213.377L232.214 213.35C231.176 143.298 232.183 70.4944 232.221 0.18436Z" fill="#009769"/>
<path d="M48.9252 635.403L107.466 635.454C104.45 651.912 102.162 671.255 100.013 687.982L232.075 687.992L232.228 635.431L288.419 635.468C288.239 652.828 288.47 670.555 288.517 687.943L419.475 687.972C417.896 670.79 414.299 652.803 412.858 635.489C431.868 635.207 451.509 635.469 470.569 635.476C471.429 645.9 473.497 658.634 474.959 669.237L483.289 728.656L505 884C488.957 883.84 472.908 884.16 456.864 884.03C453.525 884.01 450.197 884.08 446.879 883.66C445.749 877.06 444.75 869.5 443.95 862.83C439.071 822.13 431.255 780.466 427.78 739.719L93.1322 739.729C89.7562 760.419 87.1602 782.39 84.2402 803.24C80.3042 830.14 76.5122 857.05 72.8652 883.99L15.2852 883.9L39.1512 707.314C42.4382 684.008 44.8652 658.365 48.9252 635.403Z" fill="#009769"/>
<path d="M0.368258 550.683C1.71626 549.272 2.60926 549.444 5.02326 549.463C29.0343 549.649 53.1812 549.585 77.1902 549.586L232.087 549.589L422.987 549.59C454.912 549.284 486.84 549.291 518.766 549.612C519.369 550.738 519.399 550.492 519.578 551.686L519.523 604.101L0.0772732 604.151C0.0662732 586.612 -0.214742 568.139 0.368258 550.683Z" fill="#009769"/>
<path d="M255.66 770.135C269.413 767.783 282.474 777.011 284.848 790.76C287.222 804.5 278.013 817.58 264.267 819.97C250.49 822.37 237.378 813.14 234.998 799.36C232.619 785.59 241.874 772.491 255.66 770.135Z" fill="#009769"/>
</svg>
